<svg width="300" height="47" viewBox="0 0 300 47" fill="none" xmlns="http://www.w3.org/2000/svg" aria-label="Dailymotion Logo"><g clip-path="url(#logo_svg__clip0_1575_41925)" fill="#0D0D0D"><path d="M61.79 45.296h-5.508L66.722.753h5.452L61.796 45.296h-.005zM87.41 45.296H69.016L79.53.753h5.508l-9.35 39.558h12.874l-1.152 4.985zM101.836 28.072l-3.974 17.224h-5.576l4.037-17.354L93.249.753h5.577l1.602 21.704L112.408.753h6.215l-16.787 27.319zM225.19 5.738h-8.074l-8.724 39.558h-5.576l8.724-39.558h-8.844l1.22-4.985h22.494l-1.22 4.985zM225.009 45.296h-4.938L229.947.753h5.445l-9.807 44.543h-.576zM261.005 13.284l-4.87 21.856c-.661 3.093-1.585 5.305-2.782 6.883-1.825 2.464-4.813 3.666-8.855 3.666-6.666 0-10.486-2.908-10.56-7.894-.023-1.454.154-2.779.69-5.176l4.869-21.856c1.619-7.394 5.417-10.746 12.02-10.746 6.602 0 10.041 3.032 10.115 8.085.023 1.454-.154 2.97-.633 5.176h.006v.006zm-9.739-8.59c-1.922 0-3.387.629-4.391 1.892-.821 1.01-1.243 2.336-1.853 4.924l-4.869 21.98c-.302 1.324-.474 2.587-.462 3.536.04 2.656 1.79 4.104 4.801 4.104 3.204 0 4.909-1.83 5.93-6.378l4.932-21.727c.479-2.15.661-3.16.644-4.17-.04-2.718-1.727-4.172-4.744-4.172h.006l.006.011zM122.893.798h9.231l2.537 25.54c.457 4.923.713 8.898 1.044 14.276h.131c2.144-5.31 3.969-9.342 6.369-14.277L154.806.798h9.363l-5.001 44.481h-6.112l3.187-26.56c.587-4.8 1.237-8.899 2.019-13.822l-.132-.068c-2.212 4.8-4.162 9.022-6.562 13.89l-12.87 26.56h-7.868l-2.469-26.56c-.456-4.8-.781-9.09-1.106-13.822h-.126c-1.1 4.732-2.144 8.96-3.512 13.822l-7.15 26.56h-6.176L122.893.8zM200.679 23.013c-3.302 17.084-10.486 23.074-21.816 23.074-8.935 0-13.856-3.823-13.856-13.643 0-2.936.32-5.805 1.038-9.37C169.478 5.996 176.537 0 187.929 0c8.867 0 13.856 3.823 13.856 13.643 0 2.936-.388 5.805-1.101 9.37h-.005zM187.211 4.722c-7.379 0-12.362 4.783-15.082 18.481-.713 3.184-1.1 6.31-1.1 8.865 0 6.625 2.845 9.303 8.478 9.303 7.447 0 12.362-4.783 15.15-18.482.65-3.183 1.101-6.31 1.101-8.865 0-6.568-2.845-9.302-8.547-9.302zM19.563.742c-1.055 0-10.286.152-10.286.152L0 45.369h4.373v-.005c2.492-.023 3.416.028 5.85.028 11.376 0 18.577-5.104 21.89-22.132h.006c.713-3.553 1.106-6.41 1.106-9.336C33.225 4.133 28.47.742 19.563.742zm6.997 22.502c-2.8 13.653-7.282 16.775-14.757 16.814-2.612.011-3.205-.011-5.183-.04L13.719 5.7v.012c2.224-.051 2.748-.073 4.79-.051 5.724.05 9.157 2.212 9.157 8.758 0 2.543-.45 5.66-1.1 8.831l-.006-.005zM294.418.742l-8.815 39.9-6.546-39.9h-9.214l-10.019 44.571h5.794l8.809-40.585 6.494 40.585h9.118L300 .742h-5.582zM47.765.756L29.44 45.3h5.89l3.336-8.326 2.115-5.171.747-1.999h6.181l-.2 1.999-.45 5.176-.639 8.326h5.577L55.45.756H47.76h.006zm-4.282 23.81L50.582 4.8l-2.338 19.767h-4.761z"></path></g><defs><clipPath id="logo_svg__clip0_1575_41925"><path fill="#fff" d="M0 0h300v47H0z"></path></clipPath></defs></svg>