<svg xmlns="http://www.w3.org/2000/svg" width="600" height="252.234" viewBox="0 0 600 252.234"><path d="M35.686 116.556V19.102c0-6.93 5.58-12.614 12.457-12.847.13-.026.286-.026.441-.026h.572V0H0v6.229h.882c.208 0 .442 0 .65.026 6.617.337 11.886 5.813 11.886 12.483v93.25c0 20.919 14.612 38.567 34.102 43.29a44.28 44.28 0 0 0 10.408 1.246h4.152V145.91c-5.398-.57-10.407-2.647-14.56-5.761-7.163-5.399-11.834-13.963-11.834-23.592zM85.698 6.23h1.842c.156 0 .286 0 .442.026 6.877.207 12.431 5.917 12.431 12.847v76.795h19.361V18.738c0-6.618 5.217-12.068 11.757-12.483V0H85.698v6.229zm198.101 93.62c5.304.521 8.903 1.788 10.799 3.8 1.893 2.013 2.84 6.974 2.84 14.882v37.863c0 9.284-1.136 16.15-3.41 20.6-4.072 7.956-12.052 11.935-23.939 11.935-10.845 0-18.209-3.883-22.092-11.65-2.085-4.261-3.126-10.205-3.126-17.831V112.92c0-5.352.829-8.774 2.486-10.265s5.28-2.427 10.87-2.806v-2.7h-41.272v2.7c5.492.426 9.057 1.385 10.69 2.877s2.45 4.89 2.45 10.194v45.463c0 8.998 1.54 16.244 4.619 21.739 5.682 10.23 16.384 15.344 32.108 15.344 15.912 0 26.71-5.186 32.391-15.56 3.08-5.634 4.618-13.47 4.618-23.512V118.53c0-7.624.864-12.49 2.593-14.597 1.728-2.108 5.41-3.469 11.048-4.085v-2.7h-33.673v2.7zm53.434-2.7v2.7c5.401.38 8.881 1.361 10.442 2.948 1.564 1.586 2.345 4.961 2.345 10.123v63.01c0 6.268-.697 10.145-2.094 11.63-1.399 1.486-4.962 2.533-10.693 3.146v2.7h40.704v-2.7c-5.492-.426-9.056-1.379-10.69-2.861-1.633-1.483-2.451-4.887-2.451-10.21V145.81h21.1c6.153 0 10.084.912 11.79 2.735 1.706 1.824 3.102 5.553 4.192 11.19h3.409v-33.603h-3.409c-1.042 5.609-2.415 9.33-4.121 11.167-1.706 1.84-5.66 2.758-11.861 2.758h-21.1v-32.465c0-1.941.274-3.244.818-3.907.548-.663 1.795-.995 3.741-.995h19.95c8.097 0 13.518.885 16.266 2.651 2.747 1.768 4.618 5.976 5.611 12.622h4.05l-.496-20.814h-77.503zm110.17 2.7c5.92.284 9.755 1.196 11.509 2.735 1.751 1.54 2.628 4.984 2.628 10.336v64.716c0 5.603-.877 9.078-2.628 10.419-1.754 1.343-5.589 2.225-11.51 2.651v2.7h43.05v-2.7c-5.921-.426-9.756-1.308-11.507-2.651-1.754-1.34-2.629-4.816-2.629-10.42V112.92c0-5.352.875-8.796 2.629-10.336 1.751-1.539 5.586-2.45 11.506-2.735v-2.7h-43.048v2.7zm141.032 4.475c-6.534-4.783-15.96-7.175-28.272-7.175h-38.36v2.7c5.208.426 8.584 1.445 10.123 3.054 1.538 1.61 2.309 4.949 2.309 10.017v63.01c0 5.986-.687 9.816-2.06 11.489-1.374 1.673-4.832 2.767-10.372 3.287v2.7h40.704v-2.7c-5.824-.426-9.578-1.343-11.258-2.755-1.683-1.414-2.522-4.851-2.522-10.315v-26.428c1.184 0 2.993.036 5.434.107 2.438.07 4.44.106 6.002.106 10.89 0 19.961-2.225 27.208-6.676 7.246-4.45 10.868-11.625 10.868-21.525 0-7.814-3.267-14.112-9.804-18.896zm-16.48 38.645c-3.836 1.895-9.093 2.84-15.769 2.84a39.22 39.22 0 0 1-2.344-.07c-.806-.046-2.512-.188-5.115-.426v-37.935c0-2.035.342-3.35 1.029-3.942.687-.592 2.522-.888 5.505-.888 6.298 0 11.51.9 15.628 2.7 7.672 3.315 11.509 9.424 11.509 18.327 0 9.474-3.483 15.937-10.442 19.394z" fill="#0c76bc"/><path d="M142.77 107.29c-6.308-5.683-14.25-9.576-22.996-10.9v17.026c9.006 6.229 14.95 16.636 14.95 28.393 0 9.499-3.868 18.115-10.148 24.37-6.23 6.255-14.871 10.148-24.37 10.148H82.35V154.5c-8.331 1.609-20.27 2.024-20.27 2.024v73.137c0 8.253-6.436 15.078-14.56 15.65v6.306h51.154v-6.255h-.934c-8.46 0-15.39-6.93-15.39-15.416v-44.873h30.754c12.25 0 23.41-5.01 31.482-13.106 8.097-8.072 13.106-19.206 13.106-31.482 0-13.158-5.762-25.019-14.923-33.194zm-84.842 0a15.395 15.395 0 0 1 4.152 10.564v28.055s12.51 1.013 20.27-2.725v-35.893h18.063V95.897H47.52v6.307a15.45 15.45 0 0 1 10.408 5.087zm187.294 125.945v-.213c1.866-.661 3.19-1.594 3.973-2.8.78-1.207 1.17-2.801 1.17-4.783 0-3.019-.924-5.356-2.775-7.008-1.851-1.653-4.85-2.479-9-2.479h-7.242c-2.2 0-3.792.492-4.775 1.473-.983.983-1.475 2.572-1.475 4.77v23.18c0 2.198.492 3.787 1.475 4.77.983.98 2.575 1.473 4.774 1.473h7.243c1.985 0 3.737-.178 5.257-.535 1.52-.358 2.754-.842 3.702-1.447a7.998 7.998 0 0 0 2.32-2.226 8.31 8.31 0 0 0 1.247-2.747c.233-.956.348-2.005.348-3.148 0-2.144-.457-3.875-1.372-5.198-.915-1.32-2.538-2.35-4.87-3.082zm-14.363-9.78c0-.733.165-1.26.495-1.58.331-.322.87-.484 1.621-.484h5.601c2.179 0 3.702.39 4.569 1.166.865.778 1.299 1.944 1.299 3.498 0 1.536-.441 2.724-1.326 3.563-.884.84-2.399 1.26-4.542 1.26h-7.717v-7.424zm13.13 21.598c-1.037.75-2.948 1.126-5.735 1.126h-5.279c-.732 0-1.268-.165-1.607-.497-.34-.33-.51-.862-.51-1.594v-8.227h8.442c2.304 0 3.92.448 4.85 1.34.929.895 1.392 2.208 1.392 3.939 0 1.858-.518 3.163-1.553 3.913zm34.3-20.661h-.698c-1 0-1.665.167-1.996.5-.33.329-.495.988-.495 1.974v14.71c0 .933-.081 1.708-.242 2.327a3.93 3.93 0 0 1-.911 1.667c-.446.495-1.085.852-1.915 1.075-.832.226-1.89.337-3.176.337-1.268 0-2.323-.117-3.162-.35-.84-.233-1.487-.59-1.942-1.074a4.005 4.005 0 0 1-.952-1.668c-.179-.629-.268-1.4-.268-2.314v-14.71c0-1.004-.166-1.665-.496-1.99-.331-.322-.987-.484-1.97-.484h-.695c-1.001 0-1.667.167-1.997.497s-.496.986-.496 1.97v14.656c0 3.45.987 6.096 2.962 7.946 1.973 1.847 4.979 2.773 9.016 2.773 4.162 0 7.185-.903 9.07-2.707 1.885-1.802 2.827-4.474 2.827-8.012v-14.657c0-1.001-.165-1.66-.495-1.982s-.988-.484-1.97-.484zm25.562 14.135c-.803-.588-1.868-1.158-3.188-1.708l-6.378-2.722c-.965-.426-1.635-.84-2.01-1.24s-.563-.92-.563-1.561c0-.8.352-1.374 1.058-1.72.706-.346 1.96-.52 3.765-.52 2.215 0 4.395.278 6.538.838.41.102.76.153 1.047.153.337 0 .588-.071.75-.213.302-.269.454-.877.454-1.823v-.643c0-.913-.142-1.531-.429-1.863-.286-.33-.91-.629-1.875-.898-1.982-.537-4.109-.803-6.377-.803-3.645 0-6.302.61-7.972 1.832s-2.506 3.108-2.506 5.66c0 1.05.12 1.967.363 2.747.24.784.616 1.463 1.125 2.04a8.391 8.391 0 0 0 1.674 1.468c.607.4 1.368.796 2.279 1.189l5.922 2.613c1.375.623 2.303 1.153 2.786 1.587.482.435.724 1 .724 1.695 0 .89-.385 1.503-1.153 1.84-.768.337-2.081.507-3.939.507-2.608 0-5.278-.34-8.011-1.021a4.878 4.878 0 0 0-1.02-.132c-.339 0-.589.073-.75.215-.285.269-.428.885-.428 1.848v.697c0 .93.134 1.551.402 1.863.268.312.867.595 1.796.844 2.358.626 4.858.938 7.502.938 3.876 0 6.693-.616 8.455-1.853 1.759-1.235 2.638-3.186 2.638-5.852 0-1.407-.246-2.61-.737-3.617-.49-1.004-1.138-1.8-1.942-2.385zm11.844-14.135h-.722c-.984 0-1.64.162-1.97.484-.332.322-.496.981-.496 1.982v22.294c0 1 .164 1.662.496 1.984.33.322.986.482 1.97.482h.722c1.001 0 1.663-.16 1.984-.482s.482-.983.482-1.984v-22.294c0-1.001-.16-1.66-.482-1.982s-.983-.484-1.984-.484zm-.322-11.844c-.963 0-1.79.335-2.479 1.007a3.295 3.295 0 0 0-1.031 2.45 3.3 3.3 0 0 0 1.031 2.454 3.433 3.433 0 0 0 2.479 1.003c.966 0 1.782-.334 2.453-1.003.67-.672 1.004-1.488 1.004-2.454 0-.945-.334-1.759-1.004-2.438-.671-.68-1.487-1.019-2.453-1.019zm21.277 11.256c-4.037 0-7.038.91-9.002 2.732-1.967 1.823-2.948 4.458-2.948 7.905v14.71c0 1.002.165 1.663.494 1.985.33.322.989.482 1.97.482h.697c1 0 1.665-.165 1.997-.497.33-.33.494-.986.494-1.97v-14.71c0-1.231.162-2.22.484-2.96.322-.743.95-1.33 1.888-1.769.938-.439 2.246-.656 3.926-.656 1.285 0 2.345.111 3.176.334.829.223 1.467.58 1.916 1.072.446.492.753 1.044.923 1.663.17.616.256 1.389.256 2.316v14.71c0 1.002.164 1.663.496 1.985s.994.482 1.98.482h.7c.988 0 1.647-.16 1.979-.482s.499-.983.499-1.984v-14.71c0-3.539-.945-6.195-2.834-7.972-1.89-1.779-4.92-2.666-9.09-2.666zm29.474 0c-8.128 0-12.191 3.964-12.191 11.897v4.77c0 4.144 1.092 7.14 3.282 8.99 2.187 1.847 5.594 2.773 10.222 2.773 2.501 0 4.876-.294 7.127-.885.93-.248 1.536-.535 1.822-.857.286-.322.428-.937.428-1.85v-.694c0-.948-.152-1.564-.453-1.85-.18-.142-.449-.216-.804-.216-.268 0-.6.048-.993.145-2.573.638-4.948.955-7.127.955-2.786 0-4.793-.438-6.015-1.315-1.224-.877-1.837-2.327-1.837-4.352v-1.22h15.247c1.02 0 1.716-.164 2.091-.496.375-.33.616-1.004.723-2.022.07-.822.106-1.625.106-2.413 0-3.751-.986-6.582-2.96-8.493-1.975-1.911-4.864-2.867-8.668-2.867zm6.298 11.682h-12.837v-1.367c0-3.626 2.126-5.439 6.38-5.439 4.303 0 6.457 1.813 6.457 5.44v1.366zm28.054 3.04c-.803-.587-1.867-1.157-3.188-1.707l-6.377-2.722c-.965-.426-1.634-.84-2.01-1.24-.375-.4-.562-.92-.562-1.561 0-.8.352-1.374 1.057-1.72.707-.346 1.961-.52 3.766-.52 2.215 0 4.395.278 6.536.838.411.102.76.153 1.047.153.337 0 .588-.071.75-.213.302-.269.454-.877.454-1.823v-.643c0-.913-.142-1.531-.428-1.863-.287-.33-.91-.629-1.876-.898-1.982-.537-4.108-.803-6.377-.803-3.644 0-6.3.61-7.97 1.832s-2.507 3.108-2.507 5.66c0 1.05.121 1.967.362 2.747.241.784.616 1.463 1.126 2.04a8.361 8.361 0 0 0 1.675 1.468c.606.4 1.366.796 2.276 1.189l5.923 2.613c1.376.623 2.304 1.153 2.785 1.587.484.435.725 1 .725 1.695 0 .89-.385 1.503-1.153 1.84-.768.337-2.08.507-3.939.507-2.608 0-5.279-.34-8.011-1.021a4.878 4.878 0 0 0-1.019-.132c-.34 0-.588.073-.75.215-.287.269-.429.885-.429 1.848v.697c0 .93.135 1.551.403 1.863.267.312.865.595 1.795.844 2.357.626 4.858.938 7.502.938 3.878 0 6.694-.616 8.455-1.853 1.759-1.235 2.638-3.186 2.638-5.852 0-1.407-.245-2.61-.737-3.617-.49-1.004-1.138-1.8-1.942-2.385zm25.404 0c-.804-.587-1.868-1.157-3.189-1.707l-6.376-2.722c-.966-.426-1.635-.84-2.01-1.24-.375-.4-.563-.92-.563-1.561 0-.8.352-1.374 1.057-1.72.707-.346 1.962-.52 3.766-.52 2.215 0 4.395.278 6.537.838.41.102.76.153 1.046.153.338 0 .588-.071.75-.213.302-.269.454-.877.454-1.823v-.643c0-.913-.142-1.531-.428-1.863-.286-.33-.91-.629-1.876-.898-1.982-.537-4.108-.803-6.376-.803-3.645 0-6.301.61-7.971 1.832s-2.507 3.108-2.507 5.66c0 1.05.122 1.967.362 2.747.241.784.616 1.463 1.126 2.04s1.067 1.068 1.675 1.468c.606.4 1.366.796 2.276 1.189l5.923 2.613c1.376.623 2.304 1.153 2.786 1.587.484.435.724 1 .724 1.695 0 .89-.385 1.503-1.153 1.84s-2.08.507-3.938.507c-2.608 0-5.28-.34-8.012-1.021a4.878 4.878 0 0 0-1.019-.132c-.34 0-.588.073-.75.215-.286.269-.428.885-.428 1.848v.697c0 .93.134 1.551.403 1.863.266.312.864.595 1.794.844 2.357.626 4.859.938 7.502.938 3.878 0 6.694-.616 8.455-1.853 1.76-1.235 2.639-3.186 2.639-5.852 0-1.407-.246-2.61-.738-3.617-.489-1.004-1.138-1.8-1.941-2.385zm43.208-1.418a13.232 13.232 0 0 0-2.01-1.97c-.704-.552-1.594-1.153-2.666-1.794l-7.789-4.77c-1.272-.75-2.167-1.422-2.686-2.01-.52-.59-.778-1.348-.778-2.278 0-1.25.484-2.13 1.45-2.639.968-.51 2.552-.765 4.754-.765 2.862 0 5.467.385 7.809 1.153.466.142.849.215 1.153.215.286 0 .492-.063.616-.187.286-.251.428-.86.428-1.822v-.938c0-.895-.154-1.506-.469-1.838-.311-.33-.942-.638-1.89-.922-2.256-.733-4.803-1.1-7.647-1.1-4.124 0-7.175.71-9.155 2.131-1.982 1.42-2.97 3.604-2.97 6.552 0 2.053.469 3.792 1.412 5.21.943 1.42 2.293 2.667 4.055 3.74l7.598 4.554c1.825 1.09 3.07 1.98 3.734 2.666.661.69.993 1.569.993 2.641 0 1.427-.555 2.428-1.665 3-1.11.571-2.92.857-5.426.857-3.034 0-5.997-.438-8.889-1.312-.446-.142-.821-.216-1.125-.216-.304-.018-.527.046-.67.188-.303.286-.455.912-.455 1.875v.885c0 .912.134 1.528.403 1.85.266.322.864.616 1.794.885 2.623.856 5.568 1.285 8.835 1.285 4.489 0 7.799-.773 9.925-2.317 2.13-1.546 3.194-3.873 3.194-6.98 0-1.217-.152-2.301-.456-3.257a7.474 7.474 0 0 0-1.407-2.572zm24.907 9.177c-.27 0-.58.04-.938.122-.053.02-.287.076-.697.167s-.738.157-.979.195c-.24.04-.603.086-1.084.137s-.966.076-1.448.076c-2.696 0-4.625-.476-5.786-1.427-1.163-.95-1.744-2.61-1.744-4.98v-5.168c0-2.279.528-3.906 1.582-4.884s2.902-1.467 5.548-1.467c1.536 0 2.892.187 4.073.565.446.126.821.192 1.125.202.302.008.535-.058.697-.202.32-.266.482-.875.482-1.823v-.697c0-.93-.14-1.568-.416-1.916-.276-.35-.872-.63-1.782-.846a18.06 18.06 0 0 0-4.288-.535c-4.215 0-7.38 1.027-9.5 3.082-2.116 2.053-3.172 4.866-3.172 8.44v5.358c0 3.86 1.049 6.75 3.147 8.67 2.099 1.919 5.346 2.88 9.74 2.88 1.32 0 2.804-.188 4.449-.563.927-.213 1.543-.494 1.847-.844.304-.347.456-.978.456-1.888v-.672c-.017-.91-.17-1.49-.456-1.741-.177-.142-.464-.223-.856-.241zm20.07-22.481c-3.949 0-6.78 1.133-8.493 3.401v-11.522c0-.998-.165-1.665-.497-1.994-.33-.332-.986-.497-1.969-.497h-.722c-.984 0-1.64.165-1.97.497-.332.33-.496.996-.496 1.994v33.469c0 1 .164 1.662.496 1.984.33.322.986.482 1.97.482h.722c1.001 0 1.663-.16 1.982-.482.322-.322.484-.983.484-1.984V235.97c0-2.502.565-4.279 1.7-5.333 1.136-1.054 2.82-1.581 5.052-1.581 2.038 0 3.515.403 4.435 1.206.92.803 1.38 2.106 1.38 3.91v14.98c0 1 .164 1.662.496 1.984.33.322.986.482 1.97.482h.722c1 0 1.662-.16 1.984-.482.322-.322.482-.983.482-1.984v-15.864c0-3.267-.885-5.667-2.654-7.193-1.767-1.528-4.126-2.291-7.074-2.291zm27.707 0c-4.232 0-7.395 1.014-9.484 3.041-2.09 2.028-3.135 4.96-3.135 8.803v4.716c0 3.947 1.009 6.912 3.026 8.897 2.02 1.982 5.216 2.973 9.593 2.973 4.197 0 7.333-1.022 9.406-3.067 2.073-2.046 3.11-4.98 3.11-8.803v-4.716c0-3.949-.996-6.91-2.988-8.884s-5.168-2.96-9.528-2.96zm6.861 16.611c0 1.148-.099 2.104-.296 2.867-.195.763-.54 1.434-1.032 2.017s-1.191 1.009-2.103 1.28c-.91.269-2.053.403-3.43.403-2.696 0-4.531-.52-5.505-1.561-.975-1.042-1.462-2.71-1.462-5.006v-4.737c0-1.15.099-2.109.297-2.882a4.873 4.873 0 0 1 1.056-2.032c.51-.583 1.225-1.014 2.145-1.29.92-.28 2.075-.418 3.47-.418 2.66 0 4.47.524 5.426 1.573.955 1.052 1.434 2.733 1.434 5.05v4.736zm23.097-16.611c-4.232 0-7.395 1.014-9.484 3.041-2.09 2.028-3.135 4.96-3.135 8.803v4.716c0 3.947 1.009 6.912 3.026 8.897 2.02 1.982 5.216 2.973 9.593 2.973 4.197 0 7.332-1.022 9.406-3.067 2.073-2.046 3.11-4.98 3.11-8.803v-4.716c0-3.949-.996-6.91-2.989-8.884s-5.167-2.96-9.527-2.96zm6.861 16.611c0 1.148-.099 2.104-.296 2.867-.196.763-.54 1.434-1.032 2.017s-1.191 1.009-2.104 1.28c-.91.269-2.053.403-3.429.403-2.697 0-4.532-.52-5.505-1.561-.976-1.042-1.462-2.71-1.462-5.006v-4.737c0-1.15.099-2.109.296-2.882a4.871 4.871 0 0 1 1.057-2.032c.51-.583 1.224-1.014 2.144-1.29.92-.28 2.076-.418 3.47-.418 2.661 0 4.471.524 5.427 1.573.955 1.052 1.434 2.733 1.434 5.05v4.736zm21.047 6.765c-.241-.256-.817-.386-1.729-.386-.874 0-1.523-.286-1.941-.859-.421-.572-.631-1.591-.631-3.059V215.69c0-.984-.17-1.648-.507-1.987-.34-.34-1.002-.51-1.985-.51h-.697c-.98 0-1.637.165-1.97.497-.329.33-.493.996-.493 1.994v28.245c0 2.785.664 4.836 1.994 6.149 1.33 1.313 3.095 1.969 5.292 1.969.304 0 .563-.018.778-.053.928-.16 1.536-.388 1.823-.69.286-.301.428-.902.428-1.804v-.53c0-.938-.12-1.533-.362-1.79z" fill="#f47820"/></svg>